<?xml version="1.0" encoding="utf-8"?>
<!-- Generator: Adobe Illustrator 22.0.0, SVG Export Plug-In . SVG Version: 6.00 Build 0)  -->
<svg version="1.1" id="Capa_1" xmlns="http://www.w3.org/2000/svg" xmlns:xlink="http://www.w3.org/1999/xlink" x="0px" y="0px"
	 viewBox="0 0 201 71" style="enable-background:new 0 0 201 71;" xml:space="preserve">
<style type="text/css">
	.st0{fill:url(#SVGID_1_);}
	.st1{fill:none;stroke:#81867E;stroke-width:1.118;stroke-miterlimit:10;}
	.st2{fill:url(#SVGID_2_);}
	.st3{fill:#81867E;}
	.st4{fill:none;stroke:#81867E;stroke-miterlimit:10;}
	.st5{fill:url(#SVGID_3_);}
	.st6{fill:url(#SVGID_4_);}
	.st7{fill:#4F4F4F;}
	.st8{opacity:0.5;}
</style>
<g>
	<path class="st3" d="M46.5,50.7L36.4,35.6v15.1h-5.7V19.2h5.7v15.7l10-15.7h6.7L42.3,34.9l11.5,15.9H46.5z"/>
	<path class="st3" d="M56.7,49.5c-1.6-1.1-2.8-2.6-3.7-4.6c-0.8-2-1.2-4.4-1.2-7.1c0-2.7,0.4-5,1.2-7c0.8-2,2-3.6,3.6-4.6
		c1.6-1.1,3.5-1.6,5.8-1.6c2.4,0,4.3,0.6,6,1.7c1.6,1.1,2.8,2.7,3.6,4.7c0.8,2,1.2,4.3,1.2,7c0,2.7-0.4,5.1-1.2,7.1
		c-0.8,2-2.1,3.6-3.7,4.6c-1.6,1.1-3.5,1.6-5.8,1.6C60.2,51.2,58.3,50.6,56.7,49.5z M65.5,46.2c0.9-0.7,1.6-1.8,2.1-3.2
		c0.5-1.4,0.8-3.2,0.8-5.3c0-3-0.5-5.4-1.5-7s-2.5-2.4-4.3-2.4c-1.8,0-3.2,0.8-4.2,2.4s-1.5,3.9-1.5,7c0,2.1,0.2,3.9,0.7,5.3
		c0.5,1.4,1.1,2.5,2,3.2c0.9,0.7,1.9,1,3.1,1C63.6,47.2,64.6,46.9,65.5,46.2z"/>
	<path class="st3" d="M73.2,50.7l8.1-11c-1.7-0.4-3.1-1.2-4.2-2.3c-1.1-1.1-1.9-2.4-2.4-3.8c-0.5-1.4-0.7-2.9-0.7-4.4
		c0-6.7,3.7-10,11.2-10h8.8v31.5h-5.7V39.3l-8.1,11.4H73.2z M88.3,36.5V23.7h-2.3c-2.2,0-3.8,0.5-4.8,1.5c-1,1-1.4,2.5-1.4,4.6
		c0,1.2,0.2,2.3,0.7,3.3c0.5,1,1.2,1.8,2.1,2.4c0.9,0.6,2,0.9,3.3,0.9H88.3z"/>
	<path class="st3" d="M116.6,24.9v26.3h-0.4l-12.4-14.1l-1.1-1.5l0.2,3.6v11.5h-4.6V24.5h0.4l12.2,14.2l1.3,1.7l-0.2-3.5V24.9H116.6
		z"/>
	<path class="st3" d="M121.5,45.2h4.3v5.5h-4.3V45.2z"/>
	<path class="st3" d="M127.4,32.3h5.2l3.2,9.2l0.8,3l0.7-3l3.1-9.2h4.9l-7.1,18.4h-3.3L127.4,32.3z"/>
	<path class="st3" d="M147.6,24.4h5.2v4.9h-5.2V24.4z M147.8,32.3h4.8v18.4h-4.8V32.3z"/>
	<path class="st3" d="M158.2,32.3h4.4v0.6l-0.4,2.6c0.1-0.7,0.5-1.3,1-1.9c0.5-0.6,1.2-1,1.9-1.3c0.8-0.3,1.6-0.5,2.4-0.5
		c2.4,0,4.1,0.8,5.3,2.5c1.2,1.7,1.7,4,1.7,6.9c0,2.1-0.3,3.9-0.9,5.4s-1.5,2.6-2.6,3.4s-2.4,1.2-3.9,1.2c-1.3,0-2.3-0.4-3.2-1.2
		s-1.4-1.8-1.8-3l0.4,3.5v8.3h-4.5V32.3z M167.9,47c0.5-0.4,1-1.1,1.3-2c0.3-0.9,0.5-2.1,0.5-3.5c0-1.3-0.2-2.4-0.5-3.3
		c-0.3-0.9-0.7-1.5-1.3-1.9s-1.1-0.6-1.8-0.6c-0.7,0-1.4,0.3-1.9,0.8s-0.9,1.3-1.2,2.2c-0.3,0.9-0.4,2-0.4,3.2
		c0,1.2,0.1,2.2,0.4,3.1c0.3,0.9,0.7,1.6,1.2,2.1c0.5,0.5,1.1,0.7,1.8,0.7C166.7,47.6,167.3,47.4,167.9,47z"/>
</g>
<path class="st3" d="M175,71H26C11.7,71,0,59.3,0,45V26C0,11.7,11.7,0,26,0h149c14.3,0,26,11.7,26,26v19C201,59.3,189.3,71,175,71z
	 M26,1C12.2,1,1,12.2,1,26v19c0,13.8,11.2,25,25,25h149c13.8,0,25-11.2,25-25V26c0-13.8-11.2-25-25-25H26z"/>
</svg>
